<?xml version="1.0" encoding="UTF-8" standalone="no"?>
<!-- Created with Inkscape (http://www.inkscape.org/) -->

<svg
   width="210mm"
   height="89mm"
   viewBox="0 0 210 89"
   version="1.1"
   id="svg1"
   xml:space="preserve"
   inkscape:version="1.4.2 (f4327f4, 2025-05-13)"
   sodipodi:docname="logo head pafina.svg"
   inkscape:export-filename="dibujo.png"
   inkscape:export-xdpi="96"
   inkscape:export-ydpi="96"
   xmlns:inkscape="http://www.inkscape.org/namespaces/inkscape"
   xmlns:sodipodi="http://sodipodi.sourceforge.net/DTD/sodipodi-0.dtd"
   xmlns="http://www.w3.org/2000/svg"
   xmlns:svg="http://www.w3.org/2000/svg"><sodipodi:namedview
     id="namedview1"
     pagecolor="#ffffff"
     bordercolor="#000000"
     borderopacity="0.25"
     inkscape:showpageshadow="2"
     inkscape:pageopacity="0.0"
     inkscape:pagecheckerboard="0"
     inkscape:deskcolor="#d1d1d1"
     inkscape:document-units="mm"
     inkscape:zoom="0.70710678"
     inkscape:cx="127.98633"
     inkscape:cy="374.05949"
     inkscape:window-width="1920"
     inkscape:window-height="1009"
     inkscape:window-x="-8"
     inkscape:window-y="-8"
     inkscape:window-maximized="1"
     inkscape:current-layer="layer1"
     showgrid="false" /><defs
     id="defs1" /><g
     inkscape:label="Capa 1"
     inkscape:groupmode="layer"
     id="layer1"><path
       style="fill:#437db3;fill-opacity:1;stroke-width:1.30022"
       d="m 12.103535,86.395668 c 0.04564,-0.6768 0.773279,-5.0501 1.617121,-9.71845 0.843842,-4.66836 1.534817,-8.60404 1.535506,-8.74594 7.02e-4,-0.14191 4.691878,-0.25801 10.424841,-0.25801 h 10.42358 l 0.410713,-2.84057 c 0.225887,-1.56233 0.620543,-3.64953 0.877011,-4.63824 l 0.46631,-1.79767 -10.182545,0.0173 c -9.587045,0.0162 -10.187746,-0.0192 -10.271715,-0.608 -0.04902,-0.34389 0.416187,-3.33439 1.033856,-6.645545 l 1.123038,-6.020286 11.758996,-0.0905 c 10.821187,-0.08334 11.773298,-0.138148 11.938438,-0.688037 0.191315,-0.63699 1.92816,-8.344205 1.92816,-8.55614 0,-0.06917 -7.73335,-0.125732 -17.185224,-0.125732 H 10.816397 l -0.183279,1.118045 c -0.100767,0.614939 -0.350215,2.124311 -0.554271,3.354161 -1.1673756,7.036186 -8.3756706,45.453784 -8.7946267,46.872194 -0.164088,0.55553 0.243647,0.60203 5.2793161,0.60203 h 5.4571226 z m 41.339698,0.93668 c 0,-0.38722 2.856281,-16.0183 4.12666,-22.58322 0.549212,-2.83813 1.934582,-10.03667 3.078593,-15.996753 1.144017,-5.960073 2.224733,-11.339623 2.401601,-11.954562 l 0.32157,-1.118045 h -5.44999 -5.450009 l -0.230542,1.46207 c -0.402015,2.54943 -9.132671,49.2532 -9.324856,49.88233 -0.169666,0.55546 0.230412,0.60203 5.171529,0.60203 2.945489,0 5.355444,-0.13223 5.355444,-0.29385 z m 20.610608,-2.53278 c 0.62116,-4.05769 6.12226,-33.309349 6.29706,-33.48415 0.0806,-0.08061 0.5088,0.74176 0.95163,1.82739 0.44283,1.08563 2.7358,5.84406 5.09549,10.57428 2.35969,4.73021 5.56347,11.30953 7.1195,14.62067 1.55604,3.31115 3.17801,6.75562 3.60437,7.65437 l 0.77519,1.63407 h 5.221199 5.22119 l 0.0794,-1.11806 c 0.11195,-1.57454 0.49711,-3.70907 3.02625,-16.77077 4.56084,-23.554446 6.3616,-32.529999 6.67767,-33.283566 l 0.32465,-0.774034 h -5.45782 -5.45782 l -0.23365,1.634076 c -0.38783,2.712243 -6.08189,33.959394 -6.21203,34.089514 -0.0664,0.0665 -0.47579,-0.70687 -0.90954,-1.7186 -0.882079,-2.05743 -4.956389,-10.61774 -11.722989,-24.630556 l -4.5268,-9.374434 h -5.38837 -5.388353 l -0.218801,2.093365 c -0.1204,1.151357 -0.988166,6.066496 -1.928497,10.922513 -0.940331,4.856032 -2.804325,14.789222 -4.142211,22.073772 -1.337886,7.28453 -2.635543,14.05735 -2.883703,15.0507 l -0.451189,1.80608 h 5.047683 5.047691 z m 67.067309,-1.73158 c 0.4397,-2.50702 1.24204,-6.88033 1.78297,-9.71846 0.54091,-2.83813 1.92614,-10.11407 3.07826,-16.16875 1.15213,-6.054685 2.17597,-11.279432 2.27523,-11.610545 0.16439,-0.548446 0.82145,-0.602028 7.3816,-0.602028 h 7.20117 v -0.82218 c 0,-0.906109 1.19131,-6.908101 1.56095,-7.864229 0.21999,-0.569054 -0.84345,-0.602028 -19.41299,-0.602028 -10.80515,0 -19.64573,0.05123 -19.64573,0.113769 0,0.305539 -1.33743,7.404018 -1.55038,8.228655 l -0.24429,0.946052 h 7.29992 7.29993 l -0.23025,1.290064 c -1.04981,5.88203 -7.83909,40.87567 -7.97231,41.09123 -0.094,0.15219 2.20218,0.2767 5.10273,0.2767 h 5.27374 z m 59.22176,3.78418 c 0.003,-0.42573 0.35755,-2.51563 0.78872,-4.64423 l 0.78392,-3.87018 h -13.17329 c -7.2453,0 -13.17328,-0.0963 -13.17328,-0.21412 0,-0.1943 7.75813,-8.39687 16.71704,-17.67471 1.91839,-1.98669 5.97709,-6.24389 9.0193,-9.460437 l 5.5313,-5.84828 0.72542,-3.268151 c 0.39897,-1.797488 0.56878,-3.281063 0.73051,-4.106806 l 0.39102,-1.996421 -18.17387,-0.08906 c -17.49062,-0.08568 -18.69005,0.03823 -18.85943,0.602028 -0.19221,0.639746 -1.92957,8.347598 -1.92957,8.560626 0,0.06917 5.49566,0.125731 12.21257,0.125731 9.55041,0 12.21258,0.09388 12.21258,0.430659 0,0.513716 -4.12507,5.036293 -13.37753,14.666601 -3.74745,3.90046 -9.44644,9.91225 -12.66442,13.35951 l -5.85087,6.2677 -0.73864,3.70875 c -0.40625,2.03981 -0.73852,3.82486 -0.73838,3.96675 1.4e-4,0.14191 8.90169,0.25802 19.7812,0.25802 h 19.78093 z M 105.09542,26.399354 c 4.2956,-1.336053 8.27596,-4.680033 10.16394,-8.538939 0.73687,-1.506096 0.92988,-2.538091 1.07615,-4.910567 0.12638,-2.049844 -0.25487,-4.0568491 -0.70188,-4.8440418 -1.18493,-2.5777337 -2.31447,-3.7871847 -4.74862,-5.0845817 -8.52513,-4.5438478 -20.945189,2.8457629 -21.586819,12.8435885 -0.21644,3.372689 0.50668,5.525136 2.61965,7.797645 3.03492,3.264069 8.100189,4.316102 13.177579,2.736896 z m -7.102099,-3.583286 c -1.43115,-0.627043 -2.99881,-2.086709 -3.64234,-3.912514 -0.62131,-1.762806 -0.24877,-5.141564 0.71401,-7.132914 2.83952,-5.8729806 10.408479,-8.2609755 14.395659,-4.5417912 4.33958,4.0478902 2.06694,12.3208362 -4.18419,15.2313622 -2.03597,0.947951 -5.540899,1.119202 -7.283139,0.355857 z m 33.391399,3.144683 c 3.32589,-1.703196 5.32682,-4.936761 4.79828,-7.754153 -0.35566,-1.895836 -2.64111,-4.001376 -6.36817,-5.866917 -3.847,-1.925572 -4.46114,-2.7184317 -3.63576,-4.6938395 0.94382,-2.258895 4.3209,-2.983351 6.01409,-1.2901544 0.52214,0.5221547 0.87609,1.2569924 1.0916,1.3582854 0.13771,0.06472 4.08729,-1.0197694 4.09777,-1.1097224 0.0308,-0.264958 -1.69386,-2.8066916 -3.03533,-3.7363346 -0.99114,-0.686853 -1.96275,-1.014235 -3.39081,-1.142489 -2.47357,-0.222168 -4.30398,0.251059 -6.43768,1.664358 -2.2089,1.463123 -3.26847,3.3181996 -3.57466,5.6053321 -0.14232,1.0630894 -0.0744,1.9126074 1.11649,3.2308474 0.81523,0.902352 2.43388,1.986084 4.53279,3.034845 4.31854,2.157804 5.08695,2.877072 4.82146,4.513137 -0.62858,3.873469 -6.576,4.84637 -8.34621,1.365308 -0.31108,-0.611727 -0.59698,-1.150394 -0.63535,-1.197059 -0.0248,-0.02656 -3.85115,1.056794 -3.90894,1.118825 -0.2117,0.227205 1.24964,3.051076 2.38318,4.115907 1.29753,1.218873 3.21934,1.904794 5.98322,1.777997 2.14747,-0.09852 3.13433,-0.297867 4.49403,-0.994173 z M 85.785691,25.703295 c 0.1243,-0.47302 0.3175,-1.324455 0.42933,-1.892092 l 0.20333,-1.032048 -4.79102,0.104147 c -3.88112,0.08438 -4.79101,0.01456 -4.79101,-0.367818 0,-0.728565 3.6666,-18.9222155 3.95069,-19.6032565 0.22614,-0.542153 -0.005,-0.602028 -2.32752,-0.602028 h -2.57865 l -0.22763,1.290051 c -0.68776,3.897587 -4.504854,22.0134565 -4.515762,22.5539335 -0.01331,0.659308 -0.289921,0.595866 7.096942,0.502119 l 7.32529,-0.09297 z"
       id="path1"
       sodipodi:nodetypes="cssscsscsssccssscccssccsssscccssssssssssccccsscccssssccccssscccsssssscssssscccssscssscsssscsscssssssscssscsssscsssssssssssssssssssssccsscsssssscsssscssscs" /></g></svg>
