<?xml version="1.0" encoding="UTF-8" standalone="no"?>
<!-- Created with Inkscape (http://www.inkscape.org/) -->

<svg
   width="210mm"
   height="210mm"
   viewBox="0 0 210 210"
   version="1.1"
   id="svg1"
   xml:space="preserve"
   inkscape:version="1.3.2 (091e20e, 2023-11-25, custom)"
   sodipodi:docname="dibujo.svg"
   inkscape:export-filename="dibujo.png"
   inkscape:export-xdpi="96"
   inkscape:export-ydpi="96"
   xmlns:inkscape="http://www.inkscape.org/namespaces/inkscape"
   xmlns:sodipodi="http://sodipodi.sourceforge.net/DTD/sodipodi-0.dtd"
   xmlns="http://www.w3.org/2000/svg"
   xmlns:svg="http://www.w3.org/2000/svg"><sodipodi:namedview
     id="namedview1"
     pagecolor="#ffffff"
     bordercolor="#000000"
     borderopacity="0.25"
     inkscape:showpageshadow="2"
     inkscape:pageopacity="0.0"
     inkscape:pagecheckerboard="0"
     inkscape:deskcolor="#d1d1d1"
     inkscape:document-units="mm"
     inkscape:zoom="1"
     inkscape:cx="326"
     inkscape:cy="399.5"
     inkscape:window-width="1920"
     inkscape:window-height="1009"
     inkscape:window-x="-8"
     inkscape:window-y="-8"
     inkscape:window-maximized="1"
     inkscape:current-layer="layer1"
     showgrid="false" /><defs
     id="defs1" /><g
     inkscape:label="Capa 1"
     inkscape:groupmode="layer"
     id="layer1"><path
       style="fill:#437db3;fill-opacity:1"
       d="m 65.668517,153.93626 c 1.55944,-0.33444 3.34266,-1.77037 4.0502,-3.26141 1.0178,-2.14485 0.25928,-5.45663 -1.60098,-6.99001 -2.50182,-2.06221 -6.13006,-1.75933 -8.34427,0.69657 -1.9706,2.18571 -2.03434,5.31114 -0.15481,7.59133 1.06035,1.28639 2.20072,1.85226 4.48981,2.2279 0.10198,0.0167 0.804,-0.10223 1.56005,-0.26438 z m -3.39264,-2.09602 c -2.89348,-1.47127 -2.98061,-5.55011 -0.15384,-7.20104 2.0091,-1.17337 5.02704,-0.29872 5.993,1.73689 1.7358,3.65793 -2.18175,7.32387 -5.83916,5.46415 z m 84.894613,1.96666 c 1.05347,-0.28506 2.31654,-1.17033 3.21677,-2.90208 0.66001,-1.26964 0.81398,-3.97719 0.16307,-5.32178 -2.29921,-4.74954 -9.5203,-4.13654 -10.99414,0.93329 -0.53851,1.85243 -0.22983,3.33907 0.78041,4.98523 1.33976,2.1831 4.27277,2.99834 6.83389,2.30534 z m -3.87245,-1.9407 c -2.95248,-1.51352 -3.06203,-5.56337 -0.19577,-7.23735 1.99169,-1.16321 5.02559,-0.28533 5.97526,1.74724 1.64862,3.52852 -2.18661,7.33191 -5.77949,5.49011 z M 34.157427,151.8498 v -2.11667 h 1.71082 c 2.2914,0 3.41872,-0.55634 4.13798,-2.04215 0.64607,-1.3346 0.52752,-2.62699 -0.3546,-3.86583 -0.81601,-1.14598 -1.95547,-1.50035 -4.82424,-1.50035 h -2.52204 v 5.82083 5.82084 h 0.92604 0.92604 z m 0,-5.68854 v -1.98438 h 1.83708 c 1.59845,0 1.89058,0.0764 2.24896,0.58804 0.65371,0.9333 0.52678,2.19359 -0.28526,2.83234 -0.5253,0.4132 -1.07966,0.54837 -2.24896,0.54837 h -1.55182 z m 13.008429,5.62423 c 0,-1.01167 -0.0278,-2.0396 -0.01173,-2.04026 0.184869,-0.008 0.56701,0.008 0.846242,0.004 0.630496,0.68635 0.618634,0.71655 2.128361,2.41601 0.828521,0.93264 1.286642,1.52594 1.597216,1.82736 0.0537,0.0521 0.395451,0.0198 0.918973,0.002 l 0.85418,-0.0282 -1.60064,-2.05052 c -1.549997,-1.98564 -2.103583,-2.30958 -1.051404,-2.54324 1.546178,-0.34337 1.936284,-0.62123 2.268994,-1.41702 0.77252,-1.84771 0.16109,-3.94126 -1.4691,-5.0303 -0.7901,-0.52782 -1.23088,-0.60059 -3.63802,-0.60059 h -2.739 v 5.82083 5.82084 l 0.969889,-0.0643 h 0.92604 z m -0.04385,-5.59437 v -2.01424 l 2.085065,0.0571 c 2.119686,0.058 2.518685,0.42464 2.518685,1.94424 0,1.38388 -0.399892,1.92946 -2.558437,1.97962 l -2.045313,0.0475 z m 34.684945,7.15988 c 3.19148,-1.68447 4.04712,-5.6357 1.87858,-8.675 -1.22066,-1.7108 -2.40103,-2.19099 -5.67342,-2.30802 l -2.84427,-0.10172 v 5.8501 5.85011 h 2.73651 c 2.35382,0 2.89958,-0.0861 3.9026,-0.61547 z m -4.85318,-1.1197 c -0.10914,-0.11281 -0.19843,-1.9712 -0.19843,-4.12976 v -3.92466 h 1.81295 c 1.44439,0 1.99572,0.1221 2.71198,0.60059 2.40339,1.60557 2.38047,5.05017 -0.0457,6.86154 -0.68426,0.51087 -3.878928,0.72549 -4.28083,0.59229 z m 20.32292,1.19602 c 1.619429,-1.00086 1.968229,-2.23299 1.968229,-6.95272 v -4.1498 h -0.92604 -0.926039 v 4.21858 c 0,4.07801 -0.0213,4.24332 -0.63855,4.96094 -0.5601,0.65115 -1.290819,0.76998 -2.13958,0.74236 -0.754835,-0.0246 -1.57948,-0.0912 -2.13958,-0.74236 -0.61727,-0.71762 -0.63855,-0.88293 -0.63855,-4.96094 v -4.21858 h -0.92604 -0.92604 l 0.006,4.16719 c 0.007,4.76913 0.34037,5.98978 1.89704,6.93886 1.23485,0.75286 4.16858,0.75094 5.38934,-0.004 z m 15.447599,0.0173 c 0.56259,-0.287 1.32759,-0.91118 1.70001,-1.38704 l 0.67714,-0.86522 -0.85066,-0.44407 c -0.82771,-0.4321 -0.86492,-0.42741 -1.37982,0.17378 -1.85851,2.17003 -5.23432,1.78588 -6.4544,-0.73447 -1.00857,-2.08341 -0.50674,-4.22453 1.26801,-5.41014 1.51617,-1.01286 3.29603,-0.78128 4.80725,0.62548 0.6011,0.55956 0.776,0.5985 1.52135,0.33867 0.46319,-0.16147 0.84217,-0.39187 0.84217,-0.51199 0,-0.49666 -1.41197,-1.8424 -2.47096,-2.35505 -4.43033,-2.14468 -9.39525,2.16199 -8.00514,6.94381 0.45187,1.55438 1.82281,3.18216 3.1764,3.77149 1.25996,0.54855 3.95727,0.47276 5.16865,-0.14525 z m 11.44631,-4.37265 -0.0774,-4.8951 h 1.59879 1.5988 v -0.93293 -0.93293 l -4.02194,0.073 -4.02194,0.073 -6.6e-4,1.27322 c -1.9e-4,0.36916 0.008,0.44295 0.008,0.44295 0.0209,-0.008 0.081,-0.003 0.68186,0.0109 l 2.45995,0.014 -0.0774,4.88419 -0.0774,4.88419 1.00349,3e-4 1.00348,3e-4 z m 9.99932,-0.92635 v -5.82083 h -0.92604 -0.92604 v 5.82083 5.82084 h 0.92604 0.92604 z m 23.87209,1.56567 0.0727,-4.25517 2.74814,4.25517 2.74813,4.25517 h 1.02218 1.02217 v -5.8376 -5.8376 l -0.85989,0.0829 -0.8599,0.0829 0.0194,4.16719 c 0.0106,2.29195 -0.0692,4.16719 -0.17749,4.16719 -0.10828,0 -1.40633,-1.905 -2.88458,-4.23334 l -2.68771,-4.23333 h -1.03739 -1.0374 v 5.82083 5.82084 h 0.91949 0.91949 z m 20.37619,3.25608 c 0.71296,-0.71295 0.84035,-1.33978 0.86318,-2.02739 0.0594,-1.78851 -0.52919,-2.22562 -4.96094,-4.08842 -1.1054,-0.46464 -1.28906,-0.86671 -1.25677,-1.32758 0.067,-0.95636 0.75343,-1.42783 2.05315,-1.34711 0.74986,0.0466 1.19402,0.1763 1.64023,0.64998 0.69972,0.74281 0.53132,0.73359 1.3897,0.24711 1.02295,-0.57975 0.78077,-0.324 0.40058,-0.98071 -1.42348,-2.45881 -5.81571,-2.37817 -6.94305,-0.002 -0.94598,1.99351 0.0828,3.52639 3.17918,4.73684 2.24958,0.87942 2.51354,1.07085 2.51354,1.82297 0,1.66187 -2.7529,2.18524 -4.21099,0.82377 -0.93744,-0.87532 -0.76445,-0.81981 -1.47258,-0.4687 -1.09547,0.54316 -0.90747,0.53481 0.0396,1.64262 0.97858,1.14466 2.26719,1.30077 3.85477,1.24675 1.30223,-0.0443 2.10095,-0.11817 2.91041,-0.92763 z m -61.33891,-18.88141 c 0.78073,-0.35573 2.08031,-2.18427 4.39292,-6.18096 2.13051,-3.68198 3.81405,-6.29101 4.34233,-6.72944 0.64807,-0.53785 1.58686,-0.1275 2.63522,1.15189 1.68743,2.05929 3.42871,3.65904 4.52463,4.15689 1.00353,0.45587 2.38572,0.48334 24.61115,0.48917 l 23.54792,0.006 -0.0906,-1.45557 -0.0906,-1.45557 h -23.13969 c -19.47578,0 -23.25282,-0.0595 -23.85416,-0.37565 -0.87821,-0.46175 -2.40541,-2.05661 -4.38919,-4.58364 -1.57481,-2.00607 -2.75345,-2.85044 -3.60266,-2.58091 -0.96668,0.30682 -2.79997,2.72405 -5.29312,6.97911 -3.62509,6.18694 -3.91966,6.64535 -4.38508,6.82395 -0.83278,0.31957 -1.4524,-0.64783 -7.65491,-11.9514 -1.67078,-3.04486 -2.96897,-3.88511 -4.47645,-2.89736 -0.79966,0.52395 -1.49796,1.59132 -3.71304,5.67549 -2.17816,4.01609 -5.100609,8.92312 -5.438749,9.1321 -0.70933,0.43839 -1.99176,-1.4186 -5.83499,-8.44922 -1.56778,-2.86803 -3.38464,-5.09569 -4.35453,-5.33912 -1.03352,-0.2594 -2.15778,0.65544 -4.67708,3.80584 -1.31333,1.64233 -2.76066,3.18326 -3.21627,3.42429 -0.75674,0.40033 -2.916715,0.43163 -24.971615,0.36188 l -24.14323,-0.0764 v 1.4479 1.4479 l 24.14323,0.12469 c 18.40466,0.0951 24.374425,0.0489 25.115935,-0.19412 1.37357,-0.45018 2.8804,-1.7198 4.73535,-3.98988 1.76231,-2.15671 2.63249,-2.61441 3.41601,-1.79678 0.26234,0.27376 1.33478,2.04556 2.38321,3.93733 5.14315,9.28021 6.7811,10.65639 9.32103,7.83138 0.64124,-0.71321 2.464659,-3.65255 4.052059,-6.53186 2.93838,-5.32981 3.8679,-6.72347 4.48432,-6.72347 0.41023,0 1.33382,1.43041 3.58757,5.55625 3.60944,6.60763 5.57581,9.26041 6.86429,9.26041 0.27913,0 0.80511,-0.1356 1.16886,-0.30133 z m -80.849614,-27.1034 c 0.0351,-0.52053 0.59473,-3.88404 1.24373,-7.474477 0.649,-3.59044 1.18043,-6.617377 1.18096,-6.726517 5.4e-4,-0.10914 3.60853,-0.19843 8.01776,-0.19843 h 8.01679 l 0.31588,-2.18469 c 0.17373,-1.20159 0.47726,-2.80686 0.67451,-3.56728 l 0.35864,-1.38259 -7.83141,0.0133 c -7.37341,0.0125 -7.83541,-0.0148 -7.89999,-0.46761 -0.0377,-0.26449 0.32009,-2.56449 0.79514,-5.1111 l 0.86373,-4.63021 9.04386,-0.0696 c 8.32259,-0.0641 9.05486,-0.10625 9.18187,-0.52917 0.14714,-0.48991 1.48295,-6.41754 1.48295,-6.58054 0,-0.0532 -5.94773,-0.0967 -13.21718,-0.0967 h -13.21718 l -0.14096,0.85989 c -0.0775,0.47295 -0.26935,1.63381 -0.42629,2.57969 -0.89783,5.41154 -6.44174,34.958574 -6.76396,36.049474 -0.1262,0.42726 0.18739,0.46302 4.06033,0.46302 h 4.19708 z m 31.79442,0.7204 c 0,-0.29781 2.19677,-12.319697 3.17382,-17.368784 0.4224,-2.18281 1.48789,-7.71922 2.36775,-12.30313 0.879865,-4.5839 1.711045,-8.72132 1.847075,-9.19427 l 0.24732,-0.85989 h -4.191595 -4.19161 l -0.17731,1.12448 c -0.30919,1.96077 -7.02395,37.880704 -7.17176,38.364574 -0.13049,0.4272 0.17721,0.46302 3.97743,0.46302 2.26538,0 4.11888,-0.1017 4.11888,-0.226 z m 15.851645,-1.94797 c 0.47774,-3.12077 4.70864,-25.618264 4.84308,-25.752704 0.062,-0.062 0.39132,0.57049 0.7319,1.40545 0.34058,0.83496 2.10411,4.49467 3.91895,8.13269 1.81484,3.638017 4.278869,8.698177 5.475619,11.244784 1.19675,2.54661 2.44421,5.19575 2.77212,5.88698 l 0.5962,1.25677 h 4.01563 4.01562 l 0.0611,-0.8599 c 0.0861,-1.21098 0.38233,-2.85265 2.32749,-12.898427 3.50775,-18.115757 4.89272,-25.018867 5.13581,-25.598437 l 0.24969,-0.59531 h -4.19762 -4.19762 l -0.1797,1.25677 c -0.29828,2.08599 -4.67759,26.118217 -4.77768,26.218297 -0.0511,0.0511 -0.36592,-0.54366 -0.69952,-1.32178 -0.67841,-1.582377 -3.81197,-8.166117 -9.016169,-18.943397 l -3.48157,-7.20989 h -4.1442 -4.14419 l -0.16828,1.61001 c -0.0926,0.88551 -0.76,4.66575 -1.48321,8.40052 -0.72321,3.73478 -2.15681,11.37441 -3.18578,16.976967 -1.02897,5.602547 -2.027,10.811527 -2.21786,11.575517 l -0.34701,1.38906 h 3.88218 3.88219 z m 51.581559,-1.33176 c 0.33817,-1.92815 0.95525,-5.291667 1.37128,-7.474477 0.41602,-2.18281 1.4814,-7.778747 2.3675,-12.435407 0.8861,-4.65667 1.67354,-8.67503 1.74988,-8.92969 0.12643,-0.42181 0.63178,-0.46302 5.6772,-0.46302 h 5.53843 v -0.63234 c 0,-0.69689 0.91624,-5.31303 1.20053,-6.04839 0.16919,-0.43766 -0.6487,-0.46302 -14.93056,-0.46302 -8.31026,0 -15.10956,0.0394 -15.10956,0.0875 0,0.23499 -1.02862,5.69444 -1.1924,6.32867 l -0.18788,0.72761 h 5.61438 5.61438 l -0.17708,0.99219 c -0.80741,4.52388 -6.02906,31.437534 -6.13152,31.603324 -0.0723,0.11705 1.6937,0.21281 3.92452,0.21281 h 4.05604 z m 45.54754,2.91042 c 0.002,-0.32743 0.27499,-1.93477 0.6066,-3.57188 l 0.60292,-2.97656 h -10.1316 c -5.57237,0 -10.13159,-0.0741 -10.13159,-0.16468 0,-0.14944 5.96679,-6.458047 12.8571,-13.593644 1.47544,-1.52797 4.59699,-4.80219 6.93676,-7.27604 l 4.25413,-4.49792 0.55792,-2.51354 c 0.30685,-1.38245 0.43745,-2.52347 0.56184,-3.15855 l 0.30073,-1.53545 -13.97755,-0.0685 c -13.45206,-0.0659 -14.37454,0.0294 -14.50481,0.46302 -0.14783,0.49203 -1.48404,6.42015 -1.48404,6.58399 0,0.0532 4.22672,0.0967 9.39271,0.0967 7.34523,0 9.39271,0.0722 9.39271,0.33122 0,0.3951 -3.1726,3.87342 -10.28868,11.2801 -2.88217,2.99986 -7.26527,7.623527 -9.74022,10.274817 l -4.49991,4.820507 -0.56809,2.8524 c -0.31245,1.56882 -0.568,2.9417 -0.56789,3.05084 1.1e-4,0.10914 6.8463,0.19844 15.21375,0.19844 h 15.21354 z M 107.74986,60.839306 c 3.30375,-1.02756 6.36505,-3.59942 7.8171,-6.56731 0.56673,-1.15834 0.71517,-1.952049 0.82767,-3.776724 0.0972,-1.576538 -0.19602,-3.120129 -0.53982,-3.72556 -0.91133,-1.98254 -1.78006,-2.91273 -3.65217,-3.91056 -6.55669,-3.49468 -16.108968,2.18868 -16.602448,9.878024 -0.16646,2.59394 0.38969,4.24939 2.01478,5.99718 2.334161,2.5104 6.229868,3.31952 10.134888,2.10495 z m -5.46223,-2.75591 c -1.1007,-0.48226 -2.306387,-1.604891 -2.801327,-3.00912 -0.477853,-1.355777 -0.191333,-3.954384 0.549147,-5.485934 2.18388,-4.51692 8.00517,-6.35353 11.07171,-3.4931 3.33758,3.11324 1.58969,9.475974 -3.21806,11.714464 -1.56587,0.72907 -4.26151,0.86078 -5.60147,0.27369 z m 25.68137,2.41858 c 2.55794,-1.30993 4.09686,-3.79687 3.69036,-5.96373 -0.27354,-1.45809 -2.03128,-3.077464 -4.89777,-4.512254 -2.95873,-1.48096 -3.43107,-2.09075 -2.79627,-3.61004 0.7259,-1.73732 3.32321,-2.2945 4.62545,-0.99226 0.40158,0.40159 0.6738,0.966755 0.83955,1.04466 0.10591,0.04978 3.14354,-0.784307 3.1516,-0.85349 0.0237,-0.203779 -1.30275,-2.15863 -2.33448,-2.87362 -0.76228,-0.52826 -1.50955,-0.78005 -2.60787,-0.87869 -1.90243,-0.17087 -3.3102,0.19309 -4.95123,1.28006 -1.69887,1.12529 -2.51379,2.552032 -2.74928,4.31107 -0.10946,0.817624 -0.0572,1.47099 0.8587,2.48485 0.62699,0.694 1.8719,1.5275 3.48617,2.334104 3.3214,1.65957 3.91238,2.21276 3.70819,3.47106 -0.48344,2.97909 -5.05761,3.72735 -6.41908,1.05006 -0.23925,-0.47048 -0.45914,-0.88477 -0.48865,-0.92066 -0.0191,-0.02043 -2.96192,0.812782 -3.00637,0.86049 -0.16282,0.174744 0.9611,2.346587 1.83291,3.16555 0.99793,0.937437 2.476,1.46498 4.6017,1.36746 1.65162,-0.07577 2.41062,-0.22909 3.45637,-0.76462 z m -35.070278,-0.19801 c 0.0956,-0.3638 0.24419,-1.01864 0.3302,-1.45521 l 0.15638,-0.79375 -3.68478,0.0801 c -2.98497,0.0649 -3.68477,0.0112 -3.68477,-0.28289 0,-0.56034 2.81999,-14.553104 3.03848,-15.076894 0.17393,-0.41697 -0.004,-0.46302 -1.7901,-0.46302 h -1.98324 l -0.17507,0.99218 c -0.52896,2.99764 -3.46469,16.930582 -3.47308,17.346264 -0.01024,0.507074 -0.222978,0.458281 5.45827,0.38618 l 5.63389,-0.0715 z"
       id="path1"
       sodipodi:nodetypes="sssssssssssssssssssssccssssccccccccssssccsscssscssssscccccsccssscccsscccsccscssscccscccsssssccccsccsscsssssssssssccccccccsscccccccccccccccccccccccccccsscccccccccssssssscsssssscccssssccccsssssssssssssscccccssssssssscccssscsscsssccssscccssccsssscccssssssssssccccsscccssssccccssscccsssssscssssscccssscssscsssscsscssssssscssscsssscsssssssssssssssssssssccsscsssssscsssscssscs" /></g></svg>
